<?xml version='1.0' encoding='utf-8'?>
<svg xmlns="http://www.w3.org/2000/svg" version="1.1" width="600px" height="976px" viewBox="0 0 600 976"> <g id="layer1"> <g style="fill:rgb(186,59,20); fill-opacity:1.0; stroke-linejoin: miter"> <path d="M113.07888,-9.515388C103.78114,-6.5393114,89.9989,-0.93261784,86.15509,1.4323741C80.04956,5.223881,75.26464,9.030768,72.47997,12.364266C66.95738,18.917982,58.00645,32.095238,56.124615,36.51858C50.14322,50.471954,46.85214,59.0098,46.29434,61.96366C44.26199,72.72026,43.62753,80.73784,43.99374,90.44268C44.23379,96.088196,44.7969,97.80719,47.759487,101.55304C48.670258,102.752014,49.713837,104.27179,50.0383,104.963196C50.36673,105.70929,51.769928,107.64288,53.098846,109.30671C54.482395,110.96662,55.58463,112.53718,55.60422,112.810616C55.623875,113.08405,57.27329,115.384834,59.270542,117.93537C61.267742,120.48617,62.92894,122.95102,62.960373,123.38852C62.991745,123.82626,62.269638,126.022064,61.387314,128.28452C59.2479,133.71565,59.396946,135.79427,62.265854,139.76695C63.54399,141.48961,66.29222,146.84532,68.46208,151.80235C71.74621,159.26402,72.45397,161.4674,72.95135,165.33508C73.484,169.69519,73.45678,170.08191,72.2188,171.98499L70.93395,174.00134L72.219475,174.29407C72.942314,174.4071,75.032585,174.422,76.95086,174.33948C79.74438,174.19397,80.35779,174.31506,80.41272,175.08093C80.50299,176.33875,76.612785,180.35632,74.671135,180.8805C72.03417,181.67445,73.54626,182.06093,79.09026,181.93788C82.65735,181.84706,84.48584,182.04579,84.6814,182.47157C84.958984,183.27626,85.228516,183.20204,77.1574,185.65028C73.66094,186.72572,70.926384,187.69154,70.98498,187.74232C71.10223,187.84389,74.25524,188.11244,78.06463,188.33412C86.07416,188.85902,95.790596,187.88734,97.22401,186.41005C98.2942,185.23354,99.1186,185.22963,99.64637,186.45619C99.853584,187.04604,100.67817,187.81142,101.424576,188.25282C102.800064,189.03383,102.850845,188.97523,103.79176,186.76357C104.77565,184.38393,106.103836,183.7389,106.81929,185.28188C107.08125,185.86781,107.49892,184.79335,107.92409,182.28871C108.86012,176.94373,107.55116,163.29309,105.83107,160.00769C105.19783,158.84361,101.91878,155.28526,98.62037,152.22325C87.3103,141.70885,82.122925,132.24008,81.72119,121.27328C81.33557,112.06454,85.89728,106.679276,93.93018,106.76277C98.93897,106.84334,104.56215,110.12337,112.34707,117.48202C115.41494,120.39559,116.21621,121.60262,117.87002,125.49765C118.8749,128.00937,119.90298,130.07968,120.0671,130.06796C120.28585,130.05234,120.91457,128.85263,121.574425,127.32089C122.605125,124.82797,122.66739,124.163666,122.032555,117.6119C121.19387,108.98543,121.77987,108.723465,125.231964,116.22787C126.533844,119.04842,127.812164,121.54061,127.98807,121.692955C128.16385,121.8453,128.08102,119.15731,127.829926,115.65658C127.582794,112.21078,127.5311,109.19075,127.73807,109.01106C128.1951,108.48323,129.59018,109.537674,129.6608,110.52229C129.68826,110.905106,130.71646,112.97567,131.91263,115.08895L134.10947,118.88973L133.60727,111.888504L133.10904,104.94197L134.53116,104.83992C137.9224,104.596756,143.74034,105.99373,146.27647,107.6263C148.00761,108.76668,148.91014,109.0865,149.04283,108.63704C149.12486,108.246414,149.51433,104.48006,149.87254,100.27595C150.28911,95.35285,150.75719,92.68049,151.19481,92.648994C151.85118,92.601875,154.49388,98.02009,155.83122,102.102615L156.39836,103.8763L157.12022,100.91071C157.55345,99.285225,158.1309,96.60505,158.51335,95.038155C158.89189,93.41633,159.497,91.8885,159.80943,91.64631C160.12201,91.40388,162.15399,92.90754,164.57312,95.20808C169.23547,99.65681,168.96204,99.67634,171.36737,94.88557C171.99603,93.686104,173.21461,92.27913,174.1091,91.72029C175.00754,91.2159,179.93375,89.37825,184.98105,87.69661C195.13445,84.384346,199.0565,82.34382,203.21623,78.25178C204.75902,76.76666,206.2628,75.50421,206.59105,75.480774C206.97386,75.453186,208.11101,75.97662,209.20116,76.612854C210.29541,77.30426,212.59314,78.67878,214.3125,79.6551C219.65039,82.79084,224.26935,85.86799,226.60236,87.73494C228.58766,89.35188,228.75563,89.39461,228.6772,88.30086C228.57129,86.8238,229.11433,86.73005,230.74782,88.04231L232.03358,89.10457L231.89626,87.19026C231.75111,85.16633,231.90736,85.045235,235.26326,84.30988C235.91176,84.15339,236.36476,83.57087,236.41933,82.79743C236.53212,81.305,237.5674,81.175606,238.98213,82.50373C239.81068,83.3238,240.14284,83.354805,240.49037,82.83527C241.31044,81.23713,240.56679,77.002014,237.62563,66.65728C237.25398,65.30938,236.51491,62.66851,236.04543,60.723194C235.52138,58.7813,234.46169,56.27324,233.71913,55.117233C232.97646,53.960983,230.98677,50.749798,229.30598,48.011517C226.12012,42.68729,224.12299,40.136753,217.69385,33.28567C204.29247,18.907974,197.53532,12.080577,194.62779,9.870126C188.23837,5.105473,169.66914,-5.437993,162.36615,-8.377691L155.28966,-11.223885L140.4901,-10.602058C132.3793,-10.239998,124.58096,-10.120369,123.19394,-10.295906C120.13851,-10.73658,115.92684,-10.434334,113.07888,-9.515388 Z"/> </g> <g style="fill:rgb(255,199,159); fill-opacity:1.0; stroke-linejoin: miter"> <path d="M204.541,79.09162C199.82664,83.88288,196.22093,85.73591,184.29007,89.56038C179.98886,90.91365,175.91428,92.36043,175.1799,92.85286C174.44162,93.2906,173.08252,95.03742,172.10242,96.70222C169.41962,101.458084,169.31024,101.4659,164.5503,97.18879L160.43903,93.52546L159.36217,98.44074C158.78868,101.17585,158.11351,104.02815,157.94969,104.80965C157.31755,107.49397,156.09044,106.482254,154.0418,101.68123C152.97441,99.06379,151.95805,97.15754,151.75877,97.446846C151.6104,97.677315,151.20488,100.45539,150.94023,103.66292C150.26653,111.13338,149.86424,111.65706,146.23393,109.33357C143.58842,107.70906,142.06853,107.21321,136.68045,106.445145L134.28928,106.06697L134.57565,110.05989L134.86209,114.05282L137.83945,114.93856C141.83281,116.19149,153.93767,119.391685,161.77179,121.303795C167.87103,122.790375,168.42584,122.86069,172.55145,122.12484C174.93848,121.678795,181.21689,121.063576,186.46774,120.68687C195.9304,120.008156,196.15306,120.04722,203.02586,121.588234C213.3606,123.87071,218.67804,123.6544,227.2998,120.452L230.24532,119.36094L230.52162,115.54771C230.7162,112.89487,231.50063,110.03476,233.23018,105.7872C235.38527,100.57455,235.67403,99.23446,235.80946,94.99129C235.89467,92.34651,235.99135,89.095535,236.06136,87.77107C236.19356,85.78254,236.11531,85.45832,235.24019,85.521065C233.65388,85.634834,232.96663,86.783516,233.13136,89.08089C233.28444,91.21419,232.50319,91.8199,231.21364,90.70271C230.68605,90.245926,230.63918,90.35921,230.92464,91.27351C231.55421,93.15242,230.30775,92.63704,225.9386,89.21199C223.66418,87.39583,219.27588,84.466866,216.23169,82.65119C213.18762,80.83527,209.96764,78.867256,209.09618,78.21491C208.17009,77.56671,207.20091,77.08624,206.92747,77.105774C206.65404,77.12555,205.5642,78.02839,204.541,79.09162 Z"/> </g> <g style="fill:rgb(255,199,159); fill-opacity:1.0; stroke-linejoin: miter"> <path d="M87.83618,109.94881C86.09784,111.00813,85.1839,112.06332,84.29376,114.21639C83.26306,116.70931,83.16962,117.70565,83.534485,122.79233C83.94617,127.76596,84.26306,129.11777,85.98334,133.17245C88.739624,139.40733,92.69117,144.67686,99.475655,151.11754C108.44087,159.6007,108.11244,158.8546,109.02266,171.54407C109.68959,180.84265,109.65102,182.60463,108.905594,185.24232C107.89076,188.72353,107.00807,189.44667,106.35884,187.29408L105.87001,185.84486L104.81972,188.06435C104.24574,189.2599,103.49983,190.35805,103.17952,190.49086C102.91383,190.62001,101.54225,189.89369,100.209724,188.94472L97.825935,187.13637L97.123116,188.83632C96.69367,189.74672,93.983284,193.34975,91.05018,196.91396C88.11316,200.42323,85.7464,203.45181,85.75427,203.56119C85.77783,203.88931,91.71363,207.69693,93.24934,208.41153C93.92921,208.69254,95.93757,209.0983,97.81684,209.23843C99.64149,209.38248,102.95094,210.29971,105.2173,211.23648C115.134544,215.36319,120.12417,216.70963,134.70975,219.23697C138.21451,219.81046,144.89586,220.98038,149.4594,221.7526C156.80888,223.03983,158.57878,223.18765,164.37274,222.7172C171.04584,222.23843,175.40564,220.93619,174.97931,219.5922C174.76031,218.83829,175.70355,211.29361,176.11371,210.8793C176.26599,210.70352,179.15704,210.38614,182.54831,210.14275C191.57333,209.49553,192.8507,208.9091,197.79515,202.72673C200.07207,199.97942,202.66917,196.32951,203.64543,194.61003C204.57085,192.94939,206.30876,190.3505,207.40617,188.7875C209.765,185.64957,214.42395,178.55289,216.18121,175.45816C216.81378,174.31314,217.5597,173.21498,217.82147,173.03139C218.65735,172.42177,219.66455,169.60048,219.84363,167.49843C219.95642,166.006,219.66315,164.98232,218.67816,163.51357C217.5758,161.94325,217.1222,160.21669,216.3783,155.21179C215.56787,149.27747,213.5653,142.05408,212.74487,142.11292C212.14319,142.15613,208.0703,148.9906,205.38377,154.46106C202.26006,160.7328,196.75322,167.50551,192.95232,169.70229C190.26083,171.26967,189.82724,171.35585,182.59158,171.65492C176.12555,171.95374,174.68774,171.83704,172.7027,170.98987C168.3302,169.04944,165.00018,164.7799,163.3888,159.17784C162.42664,155.72813,162.43054,155.78282,163.79895,145.73375C164.38373,141.6234,164.59357,137.64975,164.35077,135.79794L163.96313,132.69199L154.32726,128.65512C149.05608,126.44931,142.65166,123.774994,140.15862,122.74423C136.0167,120.95199,135.62595,120.8702,135.5325,121.86654C135.37674,123.52695,134.47012,123.15219,133.43417,120.97225C132.91812,119.909996,131.65158,117.58163,130.59616,115.89828L128.77457,112.730064L129.04202,118.75863C129.16806,122.04818,129.08682,124.747894,128.81332,124.76767C128.2117,124.81064,126.308136,122.03353,124.752106,118.73617L123.591034,116.34579L123.78006,121.28011C123.88687,125.83554,123.76993,126.50375,122.262596,129.25058C121.3879,130.85312,120.3334,132.2479,119.950584,132.27548C119.239525,132.3265,118.35604,130.74057,116.08834,125.185394C115.08346,122.673676,113.813194,121.06014,109.92073,117.38119C107.2632,114.82284,103.30452,111.753006,101.23731,110.52693C97.79859,108.57454,96.958565,108.35994,93.77436,108.423416C90.863655,108.46712,89.7854,108.76448,87.83618,109.94881 Z"/> </g> <g style="fill:rgb(0,0,0); fill-opacity:1.0; stroke-linejoin: miter"> <path d="M135.10532,117.44393C135.21512,118.975426,135.56686,119.27987,138.79057,120.53304C140.713,121.27499,147.39879,124.039154,153.63896,126.72519L164.97852,131.51962L165.4762,136.15707C165.8288,139.54063,165.71637,142.57237,164.98737,147.73741C163.95026,155.5089,164.24048,158.78673,166.46869,163.02527C168.00507,166.04895,171.23303,168.89612,174.3316,169.93835C177.82874,171.172,189.4714,170.22694,192.36986,168.47963C195.5808,166.48988,200.38866,160.70229,202.99706,155.67714C208.88927,144.3136,211.6737,140.21057,213.30316,140.69836C214.76453,141.14319,216.30908,145.81555,217.45221,153.32068C218.57568,160.55214,219.65088,163.27895,222.47644,165.88026C223.89124,167.20815,224.22327,167.23915,227.38007,166.79286C231.23994,166.18617,237.68929,162.58974,241.33742,159.02943C243.64577,156.71962,246.46907,151.62415,248.35068,146.43103C254.86612,128.42589,254.7803,128.76183,254.08743,124.468124L253.41806,120.502785L251.36697,120.26499C250.25723,120.124855,244.55702,120.36851,238.70839,120.84312C229.74196,121.541115,227.23773,121.88584,223.20996,123.21934C217.29541,125.07286,212.90393,125.168076,205.64427,123.59972C195.09068,121.33311,191.66415,121.08384,184.08096,121.90269C180.20529,122.29087,176.13058,122.96787,175.1148,123.37045C171.25903,124.801605,168.32483,124.517426,157.23576,121.684166C151.30058,120.18563,143.95885,118.238365,140.92668,117.35604C137.83994,116.47787,135.26114,115.78353,135.15176,115.79134C135.04227,115.79916,135.04251,116.56869,135.10532,117.44393 Z M192.81401,124.84996C200.26476,125.25011,203.32408,125.745224,207.73949,127.51793C211.24847,128.91563,212.86627,130.00914,211.44415,130.11095C211.2254,130.12682,210.73724,130.98619,210.42102,131.94371C207.99681,138.7699,203.9091,148.46448,202.30022,151.32874C201.22643,153.2201,199.92607,155.78725,199.41081,157.03383C198.8994,158.3351,196.79832,161.23451,194.76341,163.5248C191.15842,167.68666,191.04904,167.69447,187.52121,168.33266C185.51309,168.69643,182.50479,168.91225,180.85214,168.86586C176.49188,168.62878,172.32214,165.6842,169.90625,161.12927C168.19403,157.95348,168.18231,157.78941,168.39581,153.10094C168.89337,144.7086,169.44354,142.4149,172.19257,137.04965C173.58258,134.20102,175.34766,131.21591,176.00388,130.39903C177.06216,129.05846,180.46078,127.38536,187.04733,124.9337C187.9614,124.6483,188.01608,124.644394,192.81401,124.84996 Z M243.69435,122.904396C247.60526,123.008644,249.33218,123.32481,250.15298,124.03551C251.26675,125.00035,251.27066,125.05504,250.42819,130.17345C249.44156,136.34679,248.57498,138.828,243.0464,151.42981C242.00392,153.75867,241.22316,155.90395,241.24672,156.23207C241.27419,156.61488,240.42677,157.83022,239.41127,159.00258C237.98567,160.58925,236.5638,161.46107,233.98537,162.3058C232.05159,162.93935,230.23903,163.7289,229.93044,164.02602C229.6219,164.32289,228.20367,164.47987,226.76978,164.41762C224.66779,164.23866,223.81592,163.85976,222.44409,162.3639L220.66199,160.51234L220.01465,151.48743L219.3634,142.4076L221.05786,138.43787C222.00269,136.28062,223.08423,133.72935,223.51373,132.81871C224.64978,130.26329,229.50087,125.077255,231.33302,124.5609C232.19258,124.2794,232.98555,123.83751,233.13002,123.55235C233.52052,122.8646,237.13441,122.6605,243.69435,122.904396 Z"/> </g> <g style="fill:rgb(236,229,221); fill-opacity:1.0; stroke-linejoin: miter"> <path d="M183.66855,127.65001C177.26181,130.3087,177.20712,130.3126,173.94281,136.92416C170.58093,143.70787,170.40533,144.32506,169.78632,151.79161L169.33856,157.04674L171.47284,160.74207C173.22809,163.74988,174.18164,164.78113,176.53406,166.15173C179.3984,167.76064,179.73044,167.79164,184.32504,167.46205C188.42331,167.11317,189.34152,166.88246,190.84921,165.6747C193.54832,163.44691,196.87187,159.1952,198.15251,156.35439C198.82018,154.932,200.06578,152.36853,200.98723,150.6532C203.02171,146.82361,208.54222,133.34288,208.84239,131.39708C209.03355,130.22887,208.72862,129.8109,206.67723,128.80333C201.08934,126.01549,189.05948,125.39415,183.66855,127.65001 Z"/> </g> <g style="fill:rgb(236,229,221); fill-opacity:1.0; stroke-linejoin: miter"> <path d="M232.45473,125.63487C229.13039,127.57774,226.58777,130.45421,224.22931,135.13145C220.85565,141.75085,220.78162,142.2511,221.17883,150.85413C221.6029,158.30067,221.70074,158.89857,222.99847,160.89467C224.83551,163.51186,226.66412,163.71059,231.95741,161.6266C237.41096,159.47597,238.61415,158.62001,239.43385,156.25209C240.24977,153.82947,240.80806,152.41492,242.61586,148.49182C246.13368,140.8175,247.9177,135.79625,248.96317,130.44347C250.19223,124.58263,250.01236,124.375595,245.37862,124.158066C235.95485,123.844345,235.51723,123.87584,232.45473,125.63487 Z"/> </g> <g style="fill:rgb(0,0,0); fill-opacity:1.0; stroke-linejoin: miter"> <path d="M232.13857,113.56235C231.24464,116.43052,231.70998,117.55161,233.99965,118.046974C236.62135,118.57383,252.90604,119.49473,252.87857,119.111916C252.85501,118.78379,247.44711,116.97251,243.57497,115.87583C241.44551,115.314064,239.07765,114.49424,238.33522,114.10751C237.58882,113.66611,236.0063,113.06503,234.77547,112.76865C232.58742,112.15585,232.53273,112.15976,232.13857,113.56235 Z"/> </g> <g style="fill:rgb(0,0,0); fill-opacity:1.0; stroke-linejoin: miter"> <path d="M231.49184,119.87632C231.53896,120.532814,231.97658,120.50132,233.40627,119.73887C234.35939,119.23081,234.3008,119.18003,232.98805,119.27427C232.10902,119.282326,231.46828,119.548195,231.49184,119.87632 Z"/> </g> <g style="fill:rgb(22,70,108); fill-opacity:1.0; stroke-linejoin: miter"> <path d="M65.314674,209.86536C59.931736,213.00037,54.7598,216.01038,53.759735,216.63196C52.75583,217.19861,50.59201,219.22328,48.963287,221.04433C46.0184,224.44435,45.206264,226.152,47.057888,225.13954C47.530544,224.8307,52.652435,224.18837,58.44248,223.6631C68.87779,222.74966,68.93248,222.74576,71.9334,223.95999C75.672844,225.50603,77.18914,226.71672,85.72461,235.34087C89.515564,239.13737,94.24439,243.74602,96.19062,245.58575C104.50319,253.40118,107.62758,262.46844,107.022354,277.02606C106.80104,281.60507,106.813736,284.848,107.00984,300.61264C107.046585,305.723,107.12642,311.43503,107.09175,313.25168C107.11183,315.06467,107.14485,320.89,107.19331,326.1643C107.241776,331.43884,107.20021,336.22485,107.1808,336.7212C107.0677,337.44397,108.25539,337.13892,113.908104,334.69922C124.2056,330.33203,137.00308,324.02612,149.17143,317.38058C151.2379,316.2977,154.10527,314.88242,155.54674,314.2844C159.12901,312.87277,169.61884,311.18576,178.37817,310.66745L185.49275,310.212L191.5458,301.0913C194.86528,296.01514,200.21947,287.87903,203.44127,282.97485C213.34485,267.7502,214.58307,266.6168,221.90845,266.03635C224.31506,265.86374,227.55402,265.79623,229.05049,265.96396C231.82063,266.25998,231.82063,266.25998,230.54274,265.3071C229.32356,264.405,227.77173,261.93222,223.92908,255.11569C223.04169,253.47507,220.63416,250.56882,218.62134,248.56918C210.64099,240.78487,210.5238,240.6833,210.90613,239.11653C211.06616,238.28035,211.46027,236.87764,211.72961,236.03352C211.995,235.13496,212.13513,233.25569,212.03314,231.83357C211.72717,227.5672,209.52654,224.48126,198.79466,213.59564C197.12975,211.84589,195.46098,210.04143,195.2108,209.61931C194.71825,208.88493,194.44481,208.90471,192.69469,209.79997C191.31577,210.5036,188.8154,210.90277,183.89267,211.25604C180.11847,211.52652,177.07123,211.965,177.09082,212.23868C177.19281,213.6608,184.1301,221.46478,188.99167,225.62445C192.50499,228.61604,194.2949,230.57686,193.99034,230.92867C193.68565,231.28035,190.12643,231.48067,184.19174,231.52144C169.79443,231.61955,151.52592,233.69963,144.16582,236.09685C143.14616,236.44487,139.50896,237.09074,136.18814,237.54875L130.03488,238.37505L127.88486,234.46086C126.2352,231.3903,124.734344,229.62883,120.97872,226.32463C118.286156,224.04362,115.32003,221.78238,114.35488,221.35684C113.335045,220.93521,111.90877,220.2128,111.10768,219.77554C110.306656,219.33804,108.24733,218.22134,106.52797,217.24527C104.812515,216.32364,101.20576,214.32828,98.51728,212.87173C95.8249,211.3605,93.02711,209.91177,92.233894,209.5839C90.870125,208.96695,86.036255,205.96011,84.05493,204.39786C83.30469,203.90201,81.862915,203.73038,79.07336,203.93057C75.18987,204.20914,74.86956,204.34195,65.314674,209.86536 Z"/> </g> <g style="fill:rgb(255,251,31); fill-opacity:1.0; stroke-linejoin: miter"> <path d="M98.37995,210.95718C98.387825,211.06656,99.76722,211.9025,101.42403,212.7731C103.0262,213.64786,105.82796,215.15128,107.602066,216.12344C109.32143,217.09976,111.88869,218.40005,113.20168,219.07559C119.69991,222.29288,126.94162,228.97563,129.2756,233.92119L130.77292,237.16753L135.12515,236.52544C139.364,235.8366,142.39568,235.17924,148.31816,233.43486C151.76775,232.4727,186.81674,229.79378,190.20035,230.21089L192.42357,230.54622L187.07736,225.76178C184.19705,223.16449,180.8869,219.93814,179.74164,218.53604C178.65515,217.18448,177.58813,216.10635,177.36938,216.12198C177.15063,216.13785,176.8501,217.31387,176.67865,218.75552C176.37073,221.36172,176.37073,221.36172,173.2143,222.57779C166.20593,225.27959,160.1618,225.32817,146.06456,222.71085C142.49724,222.03214,137.48819,221.1818,135.03836,220.75284C121.91415,218.67056,115.35769,216.94156,104.60036,212.60025C100.35694,210.92545,98.340706,210.41031,98.37995,210.95718 Z"/> </g> <g style="fill:rgb(255,251,31); fill-opacity:1.0; stroke-linejoin: miter"> <path d="M49.42575,225.95924C48.40616,226.30739,46.902126,226.80006,46.09347,227.02296C44.905727,227.32814,44.062283,228.59804,41.66482,233.49818C40.032677,236.80397,37.416466,241.71986,35.905235,244.41226C34.394,247.10452,32.754047,250.30093,32.293354,251.54361C26.663956,266.57156,19.456371,282.59247,16.402353,286.76996C15.101876,288.56757,13.430489,291.32648,12.669075,292.9754C11.431342,295.64813,11.322211,296.4256,11.66352,301.18427C12.024483,306.21637,12.161324,306.5915,14.66694,310.86493C16.105478,313.2907,17.880016,315.80243,18.638134,316.40778L19.982494,317.52094L19.375072,311.352C18.532726,303.4405,18.697521,292.70795,19.673107,288.6795C20.508068,284.99103,23.405897,280.93472,26.409805,279.1249C29.675493,277.13126,35.0201,276.52798,39.392357,277.69876C43.928738,278.85782,50.05966,281.5519,56.425266,285.21857C59.121555,286.7845,62.89628,288.8228,64.89304,289.83417C73.85314,294.4144,85.698,303.18588,87.421936,306.52585C89.145874,309.86594,88.885315,313.89792,85.83911,331.21472C84.1853,340.34985,82.75763,348.03918,82.6131,348.32446C82.46869,348.60974,84.48828,347.64026,87.0235,346.19385C89.56262,344.80212,94.8285,342.33533,98.62177,340.7987C105.02846,338.14,105.61049,337.82336,105.836685,336.3777C105.99275,335.48682,105.986465,327.73535,105.86281,319.11264C105.68446,310.49387,105.61958,302.69162,105.666275,301.80856C105.70894,300.87094,105.64894,296.202,105.52248,291.37302C105.39601,286.54404,105.40175,279.7264,105.53749,276.253C105.86708,267.81757,105.29152,263.62555,103.164566,258.50018C100.646675,252.52325,98.94251,250.2265,91.614815,243.11003C88.011536,239.63005,82.98566,234.71269,80.328125,232.15434C75.00915,226.98308,72.179924,225.09685,68.72984,224.51958C65.88926,224.00868,51.996246,225.00514,49.42575,225.95924 Z"/> </g> <g style="fill:rgb(239,210,177); fill-opacity:1.0; stroke-linejoin: miter"> <path d="M394.3426,221.12057C393.99127,222.3552,393.62396,222.60153,391.60028,222.74655C390.28754,222.84079,387.14227,222.68161,384.54022,222.42844C381.93805,222.17526,379.44928,221.96896,378.95697,222.00412C378.02716,222.07101,370.9389,232.09056,367.42044,238.22557C365.26883,241.9536,364.48,243.21971,355.1896,257.79553C351.23367,263.96204,347.63712,269.77283,347.10208,270.74573C345.12625,274.626,336.7886,287.15445,336.18692,287.19754C335.85876,287.2211,332.3501,286.59317,328.33337,285.78165C324.37537,285.02103,318.6903,283.9445,315.79114,283.38272C312.89197,282.82095,309.70374,282.05997,308.68774,281.69315C307.72656,281.32217,306.55432,281.07632,306.11682,281.1077C305.6792,281.13907,302.44406,280.4915,298.92352,279.69946C295.403,278.90735,290.49554,277.94006,288.10046,277.50708C282.9273,276.66858,276.62885,275.47107,261.67984,272.47482C242.65944,268.67123,235.9272,267.55978,230.25038,267.36227C223.96387,267.09848,219.2052,267.4398,217.66223,268.15524C216.07233,268.98398,216.24036,269.02695,233.10011,272.60056C235.10847,273.00632,238.85158,273.8375,241.47719,274.41882C244.10292,275.00024,250.74527,276.39294,256.2701,277.53613C261.7949,278.6792,268.3278,280.07983,270.78555,280.61816C273.2471,281.2113,277.5451,282.11255,280.2802,282.68616C283.0738,283.31042,288.43854,284.5199,292.29498,285.39783C296.15143,286.27588,305.9275,288.4335,314.078,290.158C322.22852,291.88235,329.94153,293.6382,331.28552,293.9816C333.8097,294.6802,338.52237,297.5309,343.29398,301.20206C346.9634,304.07257,349.22586,304.9549,352.4102,304.89142C357.34854,304.75702,359.55508,301.79495,359.59232,295.41483C359.59134,292.33597,359.95023,290.44107,361.03165,287.88943C362.29666,284.82986,375.51093,261.34094,381.1148,252.08752C382.3449,250.07495,384.59015,246.12047,386.0429,243.3773C387.49542,240.63402,390.96295,234.5576,393.7552,229.79416C396.4964,225.08945,398.73004,220.97067,398.70648,220.64255C398.68292,220.31442,398.33514,220.06442,398.00702,220.08786C397.62408,220.11545,396.73712,220.01413,396.06903,219.89694C395.06488,219.6943,394.6977,219.9404,394.3426,221.12057 Z"/> </g> <g style="fill:rgb(255,199,159); fill-opacity:1.0; stroke-linejoin: miter"> <path d="M27.742388,280.07376C26.527481,280.76578,24.672195,282.49323,23.516188,284.00555C20.852613,287.4953,20.271496,290.8908,20.259472,302.98676L20.270092,312.3322L22.174513,318.18842L24.137589,324.09515L23.81172,331.8155C23.62544,336.11716,23.279737,342.79428,23.06996,346.7679C22.6584,355.59384,24.838085,393.6474,25.987926,397.41327C27.634352,402.7381,36.690693,415.55817,42.013386,420.0145C44.295616,421.9399,45.71798,422.60764,48.79299,423.32175C53.040188,424.28146,55.38821,424.05807,64.627594,421.801C71.8707,420.07187,74.05045,419.03586,81.85899,413.69263C90.40185,407.85693,97.55377,401.79114,108.447205,391.1687C130.54665,369.68137,135.28084,365.93307,141.02402,365.5211C143.59476,365.33676,156.31253,367.11838,169.6284,369.572L180.8225,371.57285L182.58025,370.01743C184.23631,368.57907,184.33012,368.3525,183.66936,366.8054C183.27837,365.95383,183.15697,365.02792,183.30937,364.85214C183.45775,364.62143,185.18077,364.88278,187.14226,365.40182C189.049,365.92477,191.88951,366.43576,193.49153,366.5408C196.13655,366.6259,196.46083,366.54764,197.87856,364.8517C199.60872,362.91336,199.70992,361.2566,198.35353,359.20972C197.86098,358.47534,197.44655,357.29565,197.34084,356.5885C197.24666,355.27576,197.19197,355.2798,200.87654,356.05994C201.76735,356.21606,202.12672,355.86035,202.5677,354.34436C203.57468,350.75342,202.71825,348.01105,199.06767,343.105C197.54723,341.06985,197.07018,339.78458,196.4713,336.0341C195.81377,332.23282,195.39934,331.053,194.0861,329.60782C192.34691,327.5884,188.80635,324.9834,185.266,323.1482C184.00783,322.46875,181.76088,321.03564,180.25244,319.93417C178.16168,318.37985,176.06726,317.5405,170.69086,316.16684C161.0008,313.6732,158.44176,314.0217,149.81645,318.7087C132.99173,327.88745,117.62374,335.14746,104.23988,340.17578C99.15351,342.08008,92.38355,345.03967,89.26239,346.74792C83.12152,350.04736,80.644714,350.77478,81.01538,349.04395C82.04541,344.24182,82.76318,340.4519,83.63672,335.00122C84.20996,331.49646,85.270935,325.59277,85.99658,321.9121C87.56085,313.8281,87.477295,308.83102,85.71063,306.4288C83.885315,303.97568,75.22942,297.50436,69.15293,294.0368C55.33939,286.1762,49.970306,283.3725,44.527126,281.069C39.14657,278.871,38.251854,278.6602,34.24715,278.78262C30.789509,278.86563,29.379168,279.13174,27.742388,280.07376 Z"/> </g> <g style="fill:rgb(110,63,16); fill-opacity:1.0; stroke-linejoin: miter"> <path d="M213.1701,271.44626C212.39673,272.16147,208.76097,277.4254,205.10173,283.1306C201.38786,288.83997,196.42827,296.3429,194.09679,299.86365C189.97678,306.042,184.94301,314.0449,182.95937,317.81577L181.93623,319.64853L185.30855,321.44092C189.99771,323.9633,194.41362,327.27518,196.00444,329.52518C196.97765,330.82986,197.54869,332.658,198.04967,335.81094C198.65245,339.61612,199.11382,340.68265,201.26366,343.82706C204.39049,348.331,204.9968,350.6515,204.06021,354.45715C203.2446,357.6494,202.67038,358.07544,200.47835,357.40808C199.07564,357.0138,198.97017,357.0763,199.35725,357.8733C201.10085,361.48682,200.95308,364.0264,198.81276,366.37894C197.74257,367.55533,196.99251,367.829,194.41792,367.95877C192.66364,368.0295,189.89342,367.73337,188.2094,367.2496L185.07182,366.43002L185.39653,367.89108C185.6508,369.13742,185.36192,369.70798,183.4948,371.27133C182.14726,372.41245,180.7683,373.11618,180.10014,372.99924C179.49065,372.93295,174.03227,371.95004,168.01128,370.78745C161.93948,369.68356,155.31668,368.5643,153.32022,368.32272L149.70999,367.81186L146.7222,371.37997C145.10526,373.3652,143.23837,375.6982,142.59402,376.67905C141.94571,377.6052,138.59883,382.29843,135.20119,387.05054C128.24953,396.67554,125.203384,400.9624,119.72028,408.83276C117.6739,411.7284,113.97553,416.88684,111.46821,420.2555C101.544495,433.66724,96.55737,440.78738,96.963745,441.08804C97.31549,441.39273,105.99249,439.72562,116.271126,437.39407C120.86933,436.34952,125.905106,435.2736,127.37013,435.00354C131.49574,434.2677,142.93088,431.96313,144.43887,431.52515C145.19681,431.36072,147.25558,430.9381,149.04886,430.64465C150.84207,430.35107,154.52615,429.59192,157.1749,428.96216C163.77731,427.4989,170.50877,426.3014,185.94841,423.8744C198.55971,421.87018,208.55331,420.16376,218.31247,418.2542C223.30142,417.2917,238.8314,416.12274,251.3454,415.82977L259.02655,415.6087L260.07703,414.15887C260.62378,413.35004,261.85785,411.39215,262.7365,409.8448C263.61115,408.2426,266.81335,403.06485,269.88287,398.33646C272.89368,393.5574,277.1308,386.71097,279.23563,383.09647C281.39517,379.4778,285.03464,373.49905,287.46762,369.86087C291.43143,363.80386,294.67654,358.45813,302.02982,346.00037C303.55276,343.47205,307.53992,336.9736,311.0039,331.61212C314.46387,326.19598,318.59924,319.46686,320.26685,316.65338C321.93042,313.78522,324.1914,310.04938,325.27698,308.32208C326.36255,306.5949,327.83484,304.1253,328.56897,302.86307C329.2484,301.60477,330.41602,299.48672,331.14624,298.16995L332.51685,295.81754L331.05542,295.3726C330.21155,295.10318,326.63635,294.3151,323.12378,293.63248C319.61108,292.94974,315.19983,292.00174,313.3557,291.58426C311.51135,291.16666,307.26807,290.2615,303.86105,289.5164C300.5124,288.8219,295.09308,287.6162,291.84607,286.80457C288.6031,286.0476,283.23456,284.7832,279.8313,284.09277C276.48273,283.39832,271.68082,282.3684,269.22305,281.82996C264.75314,280.83105,251.85538,278.07275,244.93562,276.64478C237.06642,275.01013,231.76039,273.8513,230.13496,273.41806C229.23628,273.1528,226.94653,272.6572,225.10632,272.2944C223.26593,271.9316,220.35889,271.26047,218.62415,270.83505C214.75592,269.79318,214.81061,269.78928,213.1701,271.44626 Z"/> </g> <g style="fill:rgb(255,199,159); fill-opacity:1.0; stroke-linejoin: miter"> <path d="M342.96866,271.3722C341.6404,272.01724,337.7808,273.3937,334.39368,274.46133C331.0027,275.47415,326.77576,277.09695,325.02563,277.9921C323.27563,278.88736,320.3966,280.13846,318.68152,280.75626L315.46655,281.92154L319.36194,282.5768C321.4796,282.97464,325.32434,283.6885,327.95007,284.2698C336.60074,286.06827,335.32715,286.7095,340.91934,278.06168C343.5906,273.91153,345.70718,270.46106,345.59,270.35938C345.4767,270.3125,344.29678,270.72717,342.96866,271.3722 Z"/> </g> <g style="fill:rgb(255,199,159); fill-opacity:1.0; stroke-linejoin: miter"> <path d="M367.84647,277.88943C367.4247,278.90933,366.3588,280.90994,365.47232,282.34793C362.2233,287.63907,361.13406,290.85098,361.14737,295.6331C361.19925,299.42288,361.00027,300.48172,359.856,302.15823C359.11404,303.31107,358.54398,304.56134,358.57535,304.99896C358.6028,305.38177,358.04837,306.08136,357.36087,306.46063C355.6653,307.35187,348.04214,318.34454,344.90665,324.4522C344.56693,325.08124,344.62552,325.13214,345.19974,324.706C345.6177,324.40118,348.876,323.8376,352.47427,323.4145C358.41263,322.65863,359.22134,322.43573,361.1509,320.97784C365.62735,317.46808,369.4229,310.59845,370.14008,304.49933C370.47894,301.56107,369.25238,276.02933,368.76007,276.0646C368.70538,276.0685,368.27203,276.92422,367.84647,277.88943 Z"/> </g> <g style="fill:rgb(110,63,16); fill-opacity:1.0; stroke-linejoin: miter"> <path d="M331.31885,300.57657C330.20984,302.7454,328.01538,306.6413,326.39465,309.3416C324.77417,312.0417,322.32178,316.1761,320.95117,318.5285C319.52563,320.88483,316.17505,326.29315,313.45313,330.50177C308.95044,337.47714,305.99817,342.30722,295.49747,359.9386C293.67764,362.928,290.4208,368.10965,288.24173,371.45462C286.06253,374.79984,282.51285,380.49722,280.40805,384.11185C278.24844,387.73038,273.9685,394.74466,270.80927,399.75443C267.70074,404.7056,264.19788,410.28973,263.06927,412.18488L261.05823,415.57294L264.36743,415.72052C266.2389,415.75116,270.95453,415.57782,274.89276,415.29535C281.894,414.79315,282.10886,414.72272,282.78433,413.40973C283.171,412.6673,285.9282,408.95087,288.89633,405.1094C291.86844,401.32266,294.77798,397.43045,295.41843,396.39493C297.29288,393.40152,299.57364,389.93924,304.49417,382.6591C307.0795,378.845,309.8094,374.7458,310.55133,373.59308C316.93637,363.7337,330.05795,343.55008,332.92822,339.11093C334.9121,336.10983,337.80203,331.9439,339.41116,329.84943C340.9656,327.75873,343.3516,324.23383,344.62466,322.05328C345.9484,319.81415,347.47928,317.39532,348.13553,316.57855C348.73685,315.7657,350.01785,313.69464,350.9861,311.8659C351.95853,310.09174,353.40738,308.06366,354.1846,307.40314L355.63773,306.19928L353.0082,306.33295C349.28885,306.59967,347.53055,305.84625,340.47305,300.96463C337.00687,298.62918,334.00952,296.7001,333.79077,296.71573C333.57202,296.73148,332.43176,298.46255,331.31885,300.57657 Z"/> </g> <g style="fill:rgb(255,199,159); fill-opacity:1.0; stroke-linejoin: miter"> <path d="M167.87683,312.96005C166.15009,313.41367,166.32202,313.51144,171.02246,314.65866C173.76147,315.28683,177.13751,316.36423,178.50122,316.98105C179.86487,317.598,181.0528,318.06247,181.10352,318.00388C183.31392,314.32675,184.26656,312.27927,183.96169,311.86118C183.5356,311.28696,171.00616,312.13083,167.87683,312.96005 Z"/> </g> <g style="fill:rgb(22,70,108); fill-opacity:1.0; stroke-linejoin: miter"> <path d="M136.86378,368.0737C133.40657,369.696,124.71181,377.24704,112.54511,389.2804C95.65624,405.99573,81.60996,417.11923,72.38279,421.0798C68.2731,422.80405,59.830654,424.67416,54.142178,425.08212L49.60238,425.4078L50.73208,427.36093C51.92428,429.41953,54.153225,435.967,56.9808,445.49533C58.447475,450.613,70.7482,481.838,71.70578,482.92395C71.94412,483.18176,72.52665,484.40442,72.99583,485.58032C73.465065,486.7561,74.172646,488.18982,74.59867,488.76404C74.97001,489.34216,75.669716,490.66638,76.127174,491.6781C76.92869,493.6549,79.39878,496.6665,85.820045,503.40808C91.05309,508.91534,91.346245,509.16925,96.61377,512.09015C100.048584,513.98785,103.15106,515.0849,108.863594,516.54425C119.444466,519.19403,127.02425,519.8598,140.50325,519.22284L151.63022,518.7546L151.64822,513.6402C151.66306,510.78033,152.08377,506.68182,152.68478,504.32965C153.23495,502.03595,154.43277,496.50726,155.37692,492.04132C158.07669,479.09256,158.50601,477.4125,162.98703,463.23648C168.86546,444.782,169.38475,443.59024,178.19487,429.9834L180.7177,426.06396L177.94383,426.4828C175.16997,426.9016,167.68456,428.3181,155.92911,430.75586C144.33383,433.12695,137.7743,434.42212,131.00002,435.78775C127.261246,436.5507,120.330635,438.03738,115.56837,439.09378C110.80604,440.15005,105.44202,441.24954,103.6488,441.54312C101.85559,441.8367,98.980225,442.37283,97.296326,442.65848C94.585014,443.1829,94.13964,443.1049,94.08471,442.33914C94.04937,441.84683,94.62731,440.70584,95.38885,439.82657C96.15051,438.9473,97.90015,436.51273,99.290344,434.43372C100.680664,432.35474,104.58215,426.9619,107.995544,422.4287C111.46357,417.8916,115.01356,412.96387,116.001595,411.4087C117.68476,408.81384,131.77534,389.11047,138.28566,380.2319C139.9377,377.9692,142.28091,374.6124,143.5267,372.8187C144.76859,370.9703,146.22922,369.10617,146.74478,368.62936C147.319,368.20346,147.61185,367.6876,147.43607,367.53525C146.78726,366.9221,138.41078,367.41293,136.86378,368.0737 Z"/> </g> <g style="fill:rgb(255,199,159); fill-opacity:1.0; stroke-linejoin: miter"> <path d="M290.05698,405.96075C286.67874,410.2166,284.08163,413.86652,284.2067,414.07745C284.33182,414.2884,286.54318,414.45966,289.0203,414.50177C293.75162,414.5473,302.67557,415.55658,307.3682,416.59442C309.77115,417.13678,318.2546,421.20154,322.00204,423.6266C322.8071,424.11865,325.31198,426.08313,327.59824,428.06323C333.33115,432.87488,336.67355,438.84778,338.93063,448.08716C340.35056,454.08777,341.327,460.36145,340.63705,465.30408C339.84555,471.13354,341.06314,472.59238,341.70074,474.6544C342.70074,478.00015,344.09714,479.49393,343.07333,492.0474C341.33322,513.0091,343.4116,525.88995,351.172,542.8713C354.10815,549.3131,356.57568,556.88806,359.36865,568.23315C360.9724,574.4956,361.23438,575.08154,362.53552,575.593C364.73938,576.42444,374.03027,576.41785,377.15942,575.5885C378.61658,575.2092,384.2698,574.30884,389.6652,573.647C395.5529,572.9497,402.06937,571.8225,406.00735,570.7704L412.53543,569.0376L412.48672,562.9935C412.41153,559.64514,412.27225,551.57336,412.08292,545.09955C411.89334,538.6257,411.782,531.70636,411.75015,529.72943C411.77298,527.7486,411.64236,522.09515,411.4534,517.1607C411.3151,512.16754,411.23172,507.94025,411.3295,507.76837C411.42715,507.59637,411.35526,502.7635,411.16214,497.00458C410.91824,491.30435,410.8185,484.54922,410.8528,481.96268C410.95218,474.1486,410.1613,468.48758,408.132,463.19046C407.11526,460.51443,405.10538,454.72095,403.63516,450.31824C397.66373,432.21887,389.71695,419.53903,378.36816,410.01718C369.8214,402.7684,363.52625,399.3165,357.4115,398.38058C353.6333,397.827,341.9708,397.72885,316.04404,398.04916C311.21115,398.12106,304.7841,398.19705,301.70535,398.19803L296.20816,398.20743L290.05698,405.96075L290.05698,405.96075 Z"/> </g> <g style="fill:rgb(255,199,159); fill-opacity:1.0; stroke-linejoin: miter"> <path d="M221.89548,419.1518C220.43436,419.4765,216.14859,420.27875,212.39798,420.87762C208.64743,421.4765,202.94748,422.49017,199.64229,423.16705C196.388,423.78528,191.55913,424.68152,189.0001,425.0299C183.23369,425.88342,181.76494,426.8684,178.96507,431.52246C177.78178,433.42163,175.66527,436.87222,174.23198,439.11917C171.26799,443.78494,169.18303,448.44278,167.04802,455.46817C166.24783,458.10965,164.5303,463.2908,163.31241,467.00674C159.56503,478.381,152.95938,508.1584,152.85965,514.43304L152.74747,518.23456L160.32681,517.361C164.47202,516.89874,171.65276,515.8338,176.27068,515.0628C180.88841,514.2917,189.10063,513.0429,194.492,512.32635C199.88354,511.60968,206.52121,510.63892,209.1857,510.22778C211.90097,509.75818,218.99588,509.02942,225.00853,508.5431C235.1782,507.75867,236.55351,507.77002,244.43028,508.7444C249.1424,509.286,253.2995,509.75745,253.79181,509.72217C254.22943,509.6908,255.85486,510.12402,257.4334,510.67053C260.75867,511.80652,260.68805,510.8219,257.99976,523.1649L256.0918,531.82336L256.59882,541.958C257.22754,553.7882,258.1986,561.1956,261.6156,582.00714C263.04022,590.37164,264.5357,600.4903,264.98224,604.4168C265.70703,610.6873,265.94165,611.6601,266.7074,611.60516C267.2544,611.56586,267.87183,611.7415,268.21954,611.9915C270.60724,613.85443,292.6935,613.6447,310.35257,611.4982L318.9125,610.49945L318.51236,604.92035C317.85318,595.73126,318.13907,585.15485,319.39395,574.2891C320.03302,568.63556,320.9096,560.1611,321.2872,555.4608C322.4089,543.50507,325.87582,522.0898,330.00717,501.5063C332.89413,487.33487,333.5538,485.03336,336.0372,480.56693C338.28268,476.61246,338.40744,476.05362,339.0189,469.24747C340.1639,456.8501,337.76132,444.81726,332.31223,435.5321C330.4243,432.20386,323.4366,425.99768,318.9819,423.67822C317.21176,422.76074,314.23813,421.15967,312.4094,420.19138C310.57657,419.16815,307.53275,418.122,305.53226,417.82574C291.79453,415.62238,288.87204,415.50214,269.26312,416.52374C260.6679,417.03033,253.1001,417.2984,252.38116,417.23993C249.82593,416.87347,224.54033,418.46722,221.89548,419.1518 Z"/> </g> <g style="fill:rgb(110,63,16); fill-opacity:1.0; stroke-linejoin: miter"> <path d="M337.30344,481.35574C334.8785,485.87296,333.61374,489.70218,333.13437,493.75006C332.92795,495.46918,332.62363,497.3603,332.3895,497.92694C332.1512,498.43866,331.8469,499.56012,331.68686,500.3963L331.4647,501.89667L335.92624,501.24677C338.4305,500.90216,340.59885,500.47174,340.80185,500.23737C340.9542,500.06134,341.17258,498.5063,341.27365,496.8498C341.31992,495.19708,341.66245,490.77432,342.0013,487.0663C342.28146,483.30777,342.54233,480.04532,342.51877,479.7172C342.49924,479.44376,341.74496,478.89297,340.83835,478.51822L339.24802,477.80753L337.30344,481.35574 Z"/> </g> <g style="fill:rgb(110,63,16); fill-opacity:1.0; stroke-linejoin: miter"> <path d="M83.829445,510.1482C77.867714,511.34558,63.416473,513.7566,52.586697,515.3031C45.241905,516.37976,40.35445,517.2251,41.72579,517.18164C43.097126,517.1383,45.687523,517.2274,47.51217,517.37134C57.694057,518.2904,93.09191,519.7098,108.99348,519.88873C110.970406,519.85675,113.5608,519.94586,114.775826,520.02374C116.209724,520.08575,115.30323,519.7109,112.28687,519.04767C104.74188,517.3348,99.838135,515.6523,95.94213,513.4578C89.865715,509.99017,87.6229,509.38123,83.829445,510.1482 Z"/> </g> <g style="fill:rgb(110,63,16); fill-opacity:1.0; stroke-linejoin: miter"> <path d="M35.698257,520.52783C35.628372,521.8524,35.974747,530.51404,36.481525,539.879C36.984394,549.1892,37.51888,559.7068,37.601948,563.1644C37.685017,566.6222,37.99593,574.02185,38.231953,579.61285C38.522724,585.19977,38.62984,590.52496,38.481647,591.5251L38.275105,593.2443L48.304283,592.79974C57.563747,592.3554,71.09366,592.4296,82.07255,592.9616C84.49876,593.06244,88.08153,593.19025,90.06242,593.2131C92.04326,593.2359,96.22772,593.3208,99.423645,593.42126C102.61572,593.4673,108.78491,593.6295,113.192024,593.7532C117.59913,593.87695,123.049515,593.9807,125.30385,593.984C127.55812,593.9873,131.52376,594.0875,134.11415,594.17676C136.70454,594.26575,143.14719,594.40845,148.43344,594.52405C153.71964,594.63965,161.42819,594.8014,165.50717,594.9487C169.5861,595.0958,174.81761,595.21545,177.072,595.2186C179.32634,595.2219,184.17888,595.4236,187.8242,595.657C195.38824,596.1039,206.42139,595.09265,218.68478,592.83856C222.70102,592.1108,227.75249,591.2536,229.8192,590.94037C231.9406,590.6232,234.71056,590.1497,236.06999,589.9422C237.4257,589.6801,240.35979,589.19464,242.59056,588.8697C244.8214,588.54486,249.11499,587.85187,252.10364,587.36273C255.09235,586.8735,258.24915,586.42706,259.0656,586.31354C260.5971,586.2037,260.5932,586.149,260.2055,583.043L259.8178,579.93695L255.7273,580.39545C251.41803,580.86945,229.47325,583.81805,222.5073,584.81244C220.27652,585.1375,215.27975,585.99066,211.3729,586.71075C202.25842,588.40894,188.20128,589.41736,175.43706,589.2883C169.93602,589.24304,160.52792,589.1482,154.64395,589.1305C148.75607,589.058,139.35194,589.01794,133.74141,588.98047C128.131,588.9431,118.72291,588.84827,112.838936,588.83044C106.95502,588.8126,98.92212,588.72925,94.96435,588.73816C87.04093,588.64667,85.00541,588.62775,72.96397,588.6119C55.976345,588.6209,53.331326,588.5357,52.745083,588.028C51.982994,587.368,50.85195,580.7967,49.692223,569.99414C46.969505,545.06445,46.21322,537.58655,45.856163,532.60913L45.46383,527.1395L47.651695,526.98267C49.952965,526.87256,71.37515,527.3701,93.637505,528.08234C95.016716,528.1484,102.06885,528.35724,109.34376,528.60504C138.82631,529.56903,144.33524,529.7237,150.66068,529.76483C154.29025,529.77924,158.85757,529.8366,160.83847,529.85944C162.8154,529.8276,167.76952,529.91205,171.83665,529.8951C175.90776,529.9329,182.63182,530.16534,186.71861,530.42194C200.63562,531.293,218.14633,529.3773,237.72679,524.89404C240.43419,524.31494,245.03642,523.3251,248.02509,522.8358C257.46777,521.1139,256.831,521.43445,257.52148,518.03125C258.39557,514.1201,258.27808,513.2489,257.14905,513.60474C256.61,513.7534,253.75421,514.563,250.79291,515.4352C239.53386,518.66174,237.58842,519.1312,227.71202,520.9392C214.90164,523.23254,197.02753,524.6795,196.445,523.45685C196.17914,522.8162,195.12805,522.7266,191.8463,522.962C189.49425,523.1307,184.21593,523.1246,180.13695,522.97723C176.05809,522.83,171.48296,522.6634,169.94353,522.6639C166.85698,522.55536,151.97891,522.0832,148.1774,521.9711C146.79825,521.90497,136.88997,521.736,126.16139,521.62604C91.54516,521.1402,75.452065,520.5901,52.591763,519.2062C48.336998,518.9065,43.261677,518.6659,41.28084,518.64307C39.300007,518.62024,37.25655,518.49194,36.75252,518.36316C36.025715,518.1953,35.783707,518.6526,35.698257,520.52783 Z"/> </g> <g style="fill:rgb(110,63,16); fill-opacity:1.0; stroke-linejoin: miter"> <path d="M216.91782,510.7179C205.09567,512.2256,177.01726,516.27386,174.7982,516.76276C174.04424,516.98175,170.99687,517.42035,168.00426,517.8549C164.95688,518.2934,162.12833,518.71625,161.69864,518.857C161.26498,518.9432,157.444,519.3271,153.2363,519.6839L145.58658,520.3426L157.43668,520.75714C163.93796,520.9505,171.04881,521.21014,173.13902,521.22516C175.28789,521.29083,179.08946,521.403,181.67986,521.4921C184.27019,521.58124,188.12651,521.6894,190.2166,521.7044C192.36157,521.7155,197.15948,521.9211,200.9649,522.08795C208.63455,522.47253,213.60019,521.9514,228.79369,519.15735C236.88078,517.69763,249.8393,514.40393,255.52728,512.45654C257.0821,511.90527,257.0782,511.85046,254.35498,511.44116C238.7379,509.09778,231.0294,508.9359,216.91782,510.7179 Z"/> </g> <g style="fill:rgb(239,210,177); fill-opacity:1.0; stroke-linejoin: miter"> <path d="M333.66843,502.7281C331.5471,503.04535,331.0743,503.35406,330.92624,504.3543C330.80917,505.0224,330.02914,509.47662,329.10446,514.2161C326.04245,530.5444,323.9835,543.9969,322.90463,555.0149C322.29684,561.1061,321.88815,566.1384,321.94675,566.1892C322.12668,566.39636,356.06128,561.21326,356.04553,560.9945C355.92395,559.2988,352.6941,550.29407,349.18323,541.9694C343.26364,527.6597,342.0355,522.79987,341.24265,510.98138L340.5875,501.8471L338.40744,502.11334C337.1534,502.25824,335.02805,502.5207,333.66843,502.7281 Z"/> </g> <g style="fill:rgb(239,210,177); fill-opacity:1.0; stroke-linejoin: miter"> <path d="M46.726707,530.18274C46.961388,531.1554,47.62722,536.6056,48.20327,542.3369C48.775352,548.0137,49.54342,555.6555,49.966454,559.2538C50.38949,562.8519,51.08297,569.4546,51.572716,573.98254C52.653957,583.6912,53.193996,586.6214,53.940395,587.0627C54.2803,587.2032,61.70749,587.2752,70.55295,587.1905C79.40226,587.16046,89.681625,587.13776,93.47533,587.1407C105.086975,587.29736,129.8379,587.4463,153.43228,587.568C159.64444,587.56226,169.05254,587.6571,174.33488,587.71814C188.03679,587.8898,199.37476,587.2965,207.1922,585.9109C220.81912,583.5041,227.23808,582.5489,239.01329,581.1545C245.61206,580.4063,252.91003,579.44293,255.25018,579.11017L259.54773,578.472L258.8628,574.2878C258.47913,572.0063,257.81384,568.09564,257.4107,565.54047C256.14648,557.8792,254.53235,530.011,255.21545,528.03784C256.22266,525.2167,256.48376,522.724,255.7727,522.7749C255.44446,522.79846,251.54163,523.5731,247.04486,524.5005C222.28769,529.63,213.92728,531.1094,205.51175,531.823C198.29962,532.45013,188.83672,532.3592,179.65117,531.53375C175.283,531.1873,171.26268,531.0909,160.66306,531.2464C155.5527,531.283,149.9462,531.3005,148.29349,531.2541C142.23764,531.1386,119.70179,530.4461,84.92515,529.25696C80.24064,529.09827,71.42636,528.8508,67.847565,528.7776C65.86667,528.75476,61.1821,528.59595,57.376675,528.4292C53.5751,528.317,49.55477,528.2206,48.351463,528.3069C46.272972,528.45605,46.272972,528.45605,46.726707,530.18274 Z"/> </g> <g style="fill:rgb(110,63,16); fill-opacity:1.0; stroke-linejoin: miter"> <path d="M352.32666,562.80066C352.1704,562.92175,345.32565,564.0725,337.11362,565.3213C328.89743,566.5154,322.00192,567.72473,321.7988,567.9592C321.65048,568.1897,321.3188,569.6978,321.15912,571.3038L320.8747,574.238L330.2043,573.2389C335.33408,572.70605,343.73776,571.82825,348.92224,571.2915L358.30664,570.2886L357.92712,568.8313C357.70813,568.0774,357.3092,566.3467,356.9922,564.9949C356.44067,562.6704,356.3235,562.56885,354.45203,562.5382C353.4048,562.5033,352.42432,562.62866,352.32666,562.80066 Z"/> </g> <g style="fill:rgb(110,63,16); fill-opacity:1.0; stroke-linejoin: miter"> <path d="M38.43636,597.0262C38.074726,602.7149,38.41286,609.72797,39.18343,612.80634C44.096397,632.24615,43.74837,631.2265,46.72622,633.6519C48.89126,635.4759,48.98519,636.01874,47.383995,638.22284C46.6849,639.2077,46.149925,640.1806,46.16958,640.45404C46.22445,641.2198,51.90609,643.78107,52.988247,643.53864C53.85159,643.3117,69.99155,643.74835,77.49705,644.1446C78.712135,644.2225,82.455055,644.28375,85.75651,644.32196C91.92174,644.4294,104.2641,644.8087,113.30891,645.20447C116.06342,645.28174,122.23262,645.4441,127.077286,645.53625C131.92201,645.62866,137.65364,645.82227,139.75569,646.00134C141.90848,646.1218,145.70999,646.234,148.29251,646.2136C150.879,646.24817,155.72763,646.395,159.0369,646.5426C162.40482,646.74084,167.19872,646.8917,169.78123,646.87134C172.36375,646.8512,177.32573,647.0449,180.80693,647.29004C188.37492,647.7919,200.3067,647.0459,210.36285,645.44495C222.70065,643.46045,233.69054,641.84753,250.19305,639.67413C256.1275,638.8636,261.18304,638.0611,261.49548,637.8188C261.75714,637.6351,262.04565,635.5252,262.04492,633.21625L262.1258,628.9771L260.5592,629.3643C259.69183,629.53644,255.56244,630.2176,251.37433,630.84784C247.18616,631.4781,239.36473,632.8089,233.98894,633.7443C228.61327,634.6795,221.65518,635.7834,218.49838,636.2299C215.3378,636.6215,209.36041,637.6,205.18011,638.3396C197.26093,639.8423,183.46562,640.6669,174.80363,640.24365C170.4981,640.0027,167.19273,639.91003,160.75394,639.822C157.39786,639.78784,135.21352,638.63025,116.05714,637.5303C112.74787,637.3828,106.902954,637.14233,103.105286,637.08484C97.49095,636.99274,79.40128,636.20123,72.497475,635.76166C71.610565,635.66034,67.25418,635.4781,62.84311,635.29974C58.432095,635.1213,53.962368,634.892,52.907436,634.74786L50.9656,634.50226L49.87423,616.9876C49.293175,607.3531,48.79812,598.1523,48.848473,596.55414L48.91787,593.69037L43.776386,594.05914L38.634907,594.4279L38.43636,597.0262 Z"/> </g> <g style="fill:rgb(239,210,177); fill-opacity:1.0; stroke-linejoin: miter"> <path d="M50.082664,595.36615C50.263145,597.88214,51.10482,616.51434,51.420067,625.50824C51.59725,630.27875,51.91073,633.11505,52.30929,633.30634C52.598476,633.50555,55.02859,633.6611,57.673733,633.7463C62.68643,633.88153,81.65513,634.6651,84.52683,634.8438C90.492966,635.24054,95.89641,635.4577,101.89368,635.52246C107.562744,635.6106,119.97163,636.15,127.54353,636.7063C132.68135,637.0525,162.5195,638.37585,170.01317,638.60803C182.19145,638.999,196.87769,638.3303,203.44495,637.14453C210.00842,635.90405,213.32529,635.3914,219.74814,634.4908C222.47122,634.13055,228.45262,633.2067,233.07042,632.4357C237.68443,631.6099,246.00195,630.2985,251.495,629.46466C256.98798,628.6309,261.5511,627.8637,261.65265,627.7465C261.75415,627.6292,261.8985,626.5743,261.97626,625.3592C262.05792,624.1988,262.549,620.3151,263.1223,616.81036C264.02307,610.97296,263.99146,609.7657,263.16113,602.78815C262.695,598.5883,261.9901,593.3608,261.61444,591.18866L260.99585,587.16473L257.136,587.7714C255.0185,588.1431,251.3266,588.7929,248.93945,589.23895C246.55249,589.6851,242.91527,590.3309,240.79387,590.6479C236.55101,591.28217,229.38206,592.51117,217.65378,594.56195C206.3631,596.5812,194.49396,597.4326,184.07378,597.0255C175.2517,596.6687,162.41714,596.3248,155.70096,596.2019C151.68454,596.16003,143.14767,595.94775,135.32185,595.68445C132.45802,595.61487,126.015335,595.4724,121.00654,595.39185C115.99775,595.31116,110.711494,595.1957,109.16828,595.1415C87.03098,594.6401,64.66318,593.9903,57.052273,593.6567C49.882835,593.34625,49.937523,593.34235,50.082664,595.36615 Z"/> </g> <g style="fill:rgb(239,210,177); fill-opacity:1.0; stroke-linejoin: miter"> <path d="M336.11972,573.6942C325.58688,574.77966,321.0157,575.4373,320.77362,575.8946C319.6608,578.0086,319.42325,593.85944,320.23566,605.95135C320.87115,614.8122,321.06293,615.95294,321.82867,615.898C322.32098,615.86273,325.19638,615.32666,328.228,614.66943C331.20493,614.016,337.11203,612.82263,341.28842,612.0282C345.4648,611.23376,350.50842,610.26733,352.50867,609.79395C354.51282,609.37537,357.01318,608.97595,358.05237,608.90137L360.02148,608.76013L359.79395,605.58777C359.67236,603.8922,359.1671,599.91504,358.66602,596.7623C358.16504,593.6094,357.33875,587.4562,356.79834,582.9867L355.83887,574.97375L357.5891,574.84814C359.1206,574.7383,359.27283,574.5625,359.01074,573.2068C358.74463,571.7965,358.68604,571.7457,354.90808,571.9618C352.82568,572.05615,344.35934,572.82837,336.11972,573.6942 Z"/> </g> <g style="fill:rgb(185,255,159); fill-opacity:1.0; stroke-linejoin: miter"> <path d="M407.67593,571.8053C405.04678,572.7086,400.4915,573.5851,392.75198,574.525C386.59476,575.29663,380.39465,576.2361,378.88672,576.6742C374.7378,577.85144,363.41138,577.83923,361.46143,576.7146C360.65247,576.16785,359.30835,575.82446,358.4879,575.8833C357.0111,575.98926,357.0111,575.98926,357.58264,579.3568C357.88403,581.2595,358.44385,585.2328,358.87854,588.22546C359.2583,591.2219,359.7046,594.37866,359.88074,595.30066C360.05286,596.16797,360.5343,599.04724,360.88672,601.661C361.51697,605.8491,361.72424,606.43896,362.59937,606.3761C365.55298,606.1643,370.96912,609.6244,373.36914,613.1907C375.46423,616.3391,376.53113,617.4171,378.34814,618.2213C379.7666,618.83435,379.97754,618.7092,382.57874,615.8838C387.63272,610.46326,393.51175,606.5779,401.41458,603.317C405.63358,601.58496,406.12198,601.495,409.17337,601.88086C410.9512,602.1382,412.7289,602.3955,413.1237,602.5321C413.96768,602.8015,413.99393,599.33606,413.28885,580.3091C412.98172,572.19434,412.73892,570.3424,412.14114,570.4403C411.75833,570.4678,409.7698,571.1052,407.67593,571.8053 Z"/> </g> <g style="fill:rgb(185,255,159); fill-opacity:1.0; stroke-linejoin: miter"> <path d="M265.20758,612.9223C265.21936,613.08636,264.8722,615.14545,264.4431,617.5953C263.96722,620.1584,263.58228,626.2885,263.58417,632.446C263.55457,638.16595,263.41193,644.60864,263.3462,646.75757C263.22168,648.8557,263.32,650.9928,263.57025,651.41455C263.82043,651.8364,264.64526,653.3717,265.4115,654.8561C266.22845,656.28186,267.7256,658.75854,268.76917,660.27795C271.16132,663.735,273.54877,664.82825,286.80252,668.7157C289.49863,669.51184,292.69058,669.55774,304.20828,669.1714L314.1359,668.8441L319.0734,665.6311C321.8078,663.8955,324.48358,662.10925,325.0578,661.68335C325.63202,661.2572,326.15546,660.8899,326.26093,660.8273C326.3703,660.81946,325.9007,658.10425,325.17303,654.85767C323.33795,646.1378,323.06403,644.61816,321.52472,631.58856C320.72186,624.99384,319.82498,617.856,319.51187,615.78925L318.96378,611.98016L296.69815,613.5223C273.284,615.1469,273.01044,615.16644,266.20386,613.0157C265.6411,612.83624,265.1997,612.8129,265.20758,612.9223 Z"/> </g> <g style="fill:rgb(255,159,198); fill-opacity:1.0; stroke-linejoin: miter"> <path d="M400.03995,605.61475C392.47305,608.9614,387.14114,612.8076,382.89185,617.95056C381.98193,619.0603,380.7788,619.91626,380.01306,619.9712C378.04395,620.1124,374.58557,617.8866,373.20972,615.56616C370.78223,611.61694,366.8861,608.6527,362.7522,607.7396L361.46667,607.447L362.23828,613.60425C366.45947,645.6287,369.1399,659.236,372.3296,664.6149C373.3302,666.30255,376.19092,668.6263,377.2301,668.5517C377.39417,668.54,380.1449,669.33234,383.29028,670.26117C388.46365,671.8693,390.07352,672.0838,399.72,672.43634C408.10062,672.76984,411.53494,673.12823,415.23514,674.1274C430.544,678.3072,436.15875,679.169,443.32404,678.65497C447.6958,678.28656,448.5592,678.05975,459.1383,674.55194C467.24857,671.881,487.67947,663.1583,489.4412,661.6575C489.69888,661.41907,490.97635,660.83264,492.26163,660.35547L494.51175,659.5344L494.24503,655.81506C494.09988,653.79126,493.6259,649.48193,493.17557,646.2706L492.42764,640.4415L480.7559,635.61597C462.51587,628.1279,456.0371,625.18396,449.4956,621.36487C428.14008,608.7671,413.73697,602.6531,406.95853,603.1942C405.86856,603.3274,402.75504,604.3755,400.03995,605.61475 Z"/> </g> <g style="fill:rgb(110,63,16); fill-opacity:1.0; stroke-linejoin: miter"> <path d="M338.66733,613.81055L321.32513,617.30853L321.80316,621.67267C322.08514,624.07135,322.39435,626.08344,322.39435,626.08344C322.45294,626.1342,326.30893,625.47284,330.91904,624.59247C338.18564,623.19147,343.66684,622.19366,358.48535,619.53613L361.30994,619.0587L361.01965,615.0111C360.77246,611.5652,360.55737,610.86584,359.64685,610.4365C358.2284,609.8235,358.82617,609.7257,338.66733,613.81055 Z"/> </g> <g style="fill:rgb(110,63,16); fill-opacity:1.0; stroke-linejoin: miter"> <path d="M45.529625,643.0291C44.73751,646.5495,43.69826,659.6539,43.96114,663.31854C44.059227,664.686,44.458458,667.18634,44.849632,668.8077C45.240807,670.4289,45.984154,673.8942,46.563194,676.6016C48.17916,684.56744,49.434227,687.5013,51.743675,689.03986C52.841763,689.7858,54.34628,690.83246,54.995083,691.4456C56.050198,692.35956,57.159878,692.49994,61.71927,692.4477C64.73941,692.39594,70.79526,692.5114,75.20243,692.6352C93.88591,693.2741,98.29698,693.4526,102.77057,693.7365C105.36481,693.8803,112.31159,694.1518,118.20728,694.33356C132.42116,694.74347,137.54713,694.9256,145.76761,695.3255C149.577,695.54706,157.62546,695.8493,163.68527,696.0195C183.90422,696.60333,189.58507,696.85565,192.57794,697.19073C194.2425,697.4012,198.08691,697.3453,201.09521,697.12946C205.90857,696.78424,209.9325,696.1657,225.3527,693.46545C231.8106,692.2875,247.87146,689.32104,248.30127,689.1803C248.89105,688.97314,251.00671,682.44385,250.59631,682.0885C250.30328,681.8346,244.71654,682.895,233.57451,685.4536C224.91722,687.39404,215.92783,689.30334,212.18109,689.957C210.71216,690.1722,207.13354,690.8687,204.31287,691.40094C198.46057,692.5904,190.06834,692.8625,182.92229,692.11066C180.32005,691.85736,176.01054,691.5617,173.25615,691.48456C170.55241,691.34845,163.93777,691.1082,158.6398,690.8287C153.3458,690.6036,146.61783,690.3166,143.754,690.247C140.89017,690.17755,135.15065,689.8746,131.05995,689.5632C126.96919,689.2519,122.218155,688.9329,120.56556,688.88654C118.91285,688.84015,115.5489,688.6966,113.12257,688.59576C110.6963,688.4948,105.23816,688.2817,100.991135,688.0914C96.74425,687.9012,90.40306,687.6413,86.92576,687.451C83.448524,687.26056,78.70927,687.10565,76.450966,687.04767C74.19663,687.0445,72.15324,686.9161,71.98129,686.81854C71.80936,686.7209,67.88669,686.45245,63.248993,686.1805C58.66598,685.9045,54.571377,685.5384,54.227444,685.3431C53.598293,685.0035,52.271145,662.66754,52.158047,650.36053L52.133144,645.41425L48.889854,643.8875C46.72506,642.8333,45.658348,642.52496,45.529625,643.0291 Z"/> </g> <g style="fill:rgb(239,210,177); fill-opacity:1.0; stroke-linejoin: miter"> <path d="M358.95447,620.71204C358.3568,620.80994,354.56335,621.5769,350.54724,622.30475C346.53098,623.0328,338.55722,624.53925,332.86118,625.6076L322.44562,627.56415L322.98212,631.9788C325.02643,648.2158,327.24884,659.272,329.2778,663.02997C330.29416,664.93634,330.70456,665.2917,331.72812,664.99835C332.42734,664.78326,336.28342,664.12177,340.30734,663.50336C344.32748,662.83014,352.15686,661.6087,357.69666,660.66156L367.7528,659.0606L367.6001,657.6971C367.54517,656.93134,366.82507,653.0246,366.04236,649.01227C365.2599,645.00006,364.3595,639.34686,363.99146,636.51434C362.0492,621.6997,361.71655,620.129,360.68518,620.3131C360.36096,620.39136,359.54834,620.5596,358.95447,620.71204 Z"/> </g> <g style="fill:rgb(239,210,177); fill-opacity:1.0; stroke-linejoin: miter"> <path d="M53.801296,644.9097C53.281765,645.33185,53.784145,666.1326,54.670803,678.4941L55.078823,684.18256L59.228176,684.5446C64.42459,684.9416,75.40739,685.52826,85.44071,685.908C89.68761,686.0982,96.02879,686.3581,99.50609,686.5485C102.97943,686.68427,109.59803,686.9793,114.118416,687.14984C118.69361,687.31647,126.85933,687.7204,132.32533,688.043C137.79134,688.36566,145.73831,688.7851,149.98532,688.9754C167.57481,689.69293,172.43132,689.9493,180.06187,690.55646C194.38129,691.6735,202.55841,690.7021,232.98814,684.17615C240.24297,682.6111,247.44702,681.10486,248.96283,680.77625L251.7796,680.1892L256.01184,670.2096C258.36615,664.70776,260.51715,658.6708,260.87988,656.83044C261.5119,653.3766,262.24622,639.85406,261.83582,639.4986C261.66003,639.3464,243.63774,641.7937,233.03465,643.43396C201.77618,648.37,191.51671,649.43567,181.63176,648.8252C178.37328,648.61926,173.57536,648.4136,170.99284,648.43384C168.41039,648.4542,163.61252,648.24854,160.2485,648.105C156.93533,647.90283,152.30545,647.7401,150.05112,647.73694C144.38596,647.70337,140.6938,647.5835,139.03328,647.4276C138.25575,647.3185,133.68068,647.15186,128.83589,647.0596C119.92005,646.92944,107.57776,646.5502,98.53296,646.1543C95.833115,646.07306,89.60924,645.91473,84.764565,645.8226C79.91984,645.73016,74.35233,645.5247,72.35966,645.3378C70.37094,645.2055,66.17868,645.01154,62.982697,644.9108C59.78677,644.81024,56.590786,644.70953,55.81326,644.6004C55.0397,644.54596,54.113796,644.6674,53.801296,644.9097 Z"/> </g> <g style="fill:rgb(255,159,198); fill-opacity:1.0; stroke-linejoin: miter"> <path d="M262.4583,656.6073C262.18915,658.22095,259.47595,665.6178,256.38385,673.0967C250.20355,688.10925,249.17328,692.1415,249.98358,697.3064C251.2204,704.5847,254.67535,708.2953,265.6361,713.9415C268.37927,715.3943,272.39264,718.45996,278.6807,724.1116C283.6713,728.5367,288.46634,732.53595,289.32602,733.0241C290.12704,733.4615,292.6243,735.3166,294.7853,737.08575C299.16226,740.6203,302.5502,742.6314,308.15738,744.92316C311.38895,746.2857,319.91446,747.87335,338.57516,750.49316C340.13022,750.71155,343.46298,751.18726,346.07687,751.6045C360.14282,753.7843,377.23157,752.1188,385.05203,747.7092C387.6459,746.3136,388.87625,745.0709,390.49686,742.3706C391.57852,740.58875,391.68765,739.81116,391.3738,735.4354C390.8206,727.72314,388.74124,724.7936,378.83093,717.6975C374.54407,714.65137,362.87854,703.7777,351.0835,691.8687C343.43515,684.1158,330.6743,668.70245,328.2115,664.26086L327.08185,662.30786L321.82794,665.7085C318.9373,667.56506,315.8787,669.3789,315.027,669.7699C314.0153,670.2272,309.35806,670.4513,300.29398,670.55176C287.43997,670.7041,286.94376,670.6847,283.27072,669.2988C281.23495,668.51025,279.3751,667.874,279.21103,667.88574C279.04684,667.89746,276.84302,667.0659,274.29932,666.0939C269.43445,664.1887,269.31335,664.0325,265.40063,657.77075L262.8559,653.71985L262.4583,656.6073 Z"/> </g> <g style="fill:rgb(110,63,16); fill-opacity:1.0; stroke-linejoin: miter"> <path d="M355.06384,662.27985C338.54587,665.0042,332.19736,666.17426,331.94333,666.46735C331.38486,667.1121,333.75314,669.47125,334.90182,669.38885C335.94113,669.3143,340.99265,668.4572,363.63257,664.46906C368.68408,663.612,369.97314,663.18964,369.6565,662.6076C369.46497,662.2365,369.3047,661.53326,369.2732,661.09564C369.20654,660.16583,366.19824,660.38165,355.06384,662.27985 Z"/> </g> <g style="fill:rgb(239,210,177); fill-opacity:1.0; stroke-linejoin: miter"> <path d="M357.30786,666.7371C351.9359,667.72723,344.66147,669.01874,341.13364,669.65656L334.72653,670.77594L337.25912,673.893C341.78122,679.45123,349.61743,688.29047,352.87683,691.57526C360.57983,699.32446,366.43018,705.00745,366.94604,705.3002C367.40332,705.54236,387.09732,701.8756,390.81656,700.83923L392.21512,700.40894L391.06058,693.50934C390.40298,689.70807,389.52994,683.6683,389.11075,680.1247C388.68777,676.5264,388.25723,673.58844,388.14383,673.54156C388.08524,673.4908,385.26797,672.5384,381.8412,671.5197C374.7533,669.27924,372.86987,668.31476,371.5603,666.1545C370.44238,664.36554,371.04407,664.3223,357.30786,666.7371 Z"/> </g> <g style="fill:rgb(110,63,16); fill-opacity:1.0; stroke-linejoin: miter"> <path d="M54.56674,696.2045C53.418972,699.36566,53.713223,703.46796,55.782925,713.1605C57.99728,723.33765,59.03744,726.3418,62.551666,732.41223C65.44437,737.48267,65.50296,737.53345,67.714386,737.7047C73.235085,738.02344,77.55241,738.42847,83.20603,739.0675C86.58573,739.4298,94.55229,740.1229,100.909164,740.60156C107.324585,741.1309,117.11976,742.02277,122.769424,742.6071C128.42305,743.24615,134.12349,743.7719,135.5066,743.89264C139.03859,744.07916,154.19821,745.4107,163.72372,746.3768C168.15056,746.774,174.24168,747.38165,177.28142,747.60345C180.32109,747.82526,186.74443,748.4639,191.56578,748.99786C196.3872,749.5317,203.13092,750.03754,206.4909,750.1264C212.82813,750.3316,213.91425,750.1436,225.89226,746.9755C227.24004,746.60406,229.66997,745.9898,231.29124,745.5987C232.91258,745.2076,237.66307,743.987,241.8159,742.86456C249.74646,740.7563,256.38794,739.0704,268.53772,735.9997C272.53436,734.9982,276.96063,733.85614,278.35922,733.42596C279.75778,732.9958,281.97684,732.5068,283.2856,732.35785C284.64523,732.15045,285.61008,731.8062,285.42642,731.5446C284.94174,730.9196,279.4684,732.0269,264.40015,735.8017C251.8714,738.9545,237.05711,742.4362,219.2032,746.46564C211.90155,748.144,209.70972,748.24615,203.1145,747.5097C199.7309,747.0927,193.19427,746.40704,168.22386,743.9648C157.59262,742.91315,137.38112,740.89923,123.3741,739.54C109.36317,738.1259,90.816025,736.3225,82.18137,735.51245C73.54667,734.7024,66.38876,733.7864,66.31052,733.46216C65.60263,731.25867,63.21982,719.4994,62.02597,712.053C61.231354,707.10693,60.131683,700.9733,59.611233,698.3167C58.613552,693.60504,58.613552,693.60504,57.02737,693.7188C55.714626,693.81305,55.30453,694.22736,54.56674,696.2045 Z"/> </g> <g style="fill:rgb(239,210,177); fill-opacity:1.0; stroke-linejoin: miter"> <path d="M60.235077,693.9836C60.08664,694.2142,60.27066,695.24554,60.614716,696.2105C60.962738,697.23016,62.00363,702.5433,62.84134,708.09106C63.733795,713.6349,64.98605,720.3623,65.61978,723.0658C66.194916,725.7185,66.81314,728.9728,66.90341,730.23083C67.04465,732.19995,67.290924,732.567,68.34976,732.7661C69.904816,732.9844,101.17729,735.90906,105.541504,736.20087C106.483154,736.2984,107.811584,736.4229,108.58911,736.53204C109.98011,736.76227,136.39223,739.3759,186.11021,744.2211L211.29938,746.64764L219.41768,744.8559C223.91037,743.8741,229.10643,742.7316,231.05974,742.3715C233.00926,741.95685,244.08873,739.2928,255.65259,736.4842C267.27124,733.6716,278.03036,731.14044,279.60086,730.8079C281.11667,730.4793,282.40195,730.00214,282.38626,729.7834C282.3666,729.50995,281.24887,728.49054,279.91245,727.4869C278.52518,726.5418,275.69568,723.88574,273.5539,721.62036C270.34137,718.2223,268.7743,717.0702,264.5581,715.00854C261.4242,713.474,257.79004,711.0958,255.26929,708.9125C250.11475,704.49915,248.82068,701.7881,248.43964,694.9431L248.1687,690.3994L246.44196,690.853C245.46912,691.0879,240.31609,692.06213,234.94823,693.10693C229.5764,694.09705,222.14182,695.45496,218.39902,696.1633C206.30359,698.46027,199.15009,699.13837,192.73853,698.66364C189.53087,698.39886,183.9594,698.13873,180.32585,698.06964C176.6923,698.0003,172.33598,697.81805,170.6754,697.6622C169.01494,697.50653,164.27567,697.3516,160.20456,697.3138C156.13345,697.2758,150.29245,697.09,147.25272,696.86835C144.21304,696.64655,138.53212,696.3942,134.57045,696.3486C130.6634,696.2989,127.24477,696.15936,127.01808,696.06573C126.84621,695.96796,121.497444,695.747,115.16413,695.5965C108.885506,695.4421,100.73149,695.2022,97.09013,695.0235C93.44878,694.8449,87.98667,694.57697,84.95481,694.46454C81.92295,694.35223,75.35911,694.0533,70.3425,693.86334C59.641018,693.3665,60.52011,693.35834,60.235077,693.9836 Z"/> </g> <g style="fill:rgb(110,63,16); fill-opacity:1.0; stroke-linejoin: miter"> <path d="M397.0557,699.6769C395.8759,700.0913,394.05545,700.7717,393.04764,701.2838C391.50455,701.99927,371.69348,706.3341,368.90393,706.5343C368.35693,706.5735,368.9159,707.46814,370.7566,709.3701L373.4806,712.0886L376.0786,711.51746C377.48108,711.14197,381.8136,710.22644,385.6619,709.45557C394.6044,707.65955,397.35477,706.9126,399.7416,705.6968C401.38614,704.864,401.58536,704.57495,401.18265,703.5591C400.91287,702.8638,400.5413,701.516,400.30655,700.5432C400.07584,699.62524,399.74734,698.879,399.5286,698.8948C399.36844,698.9612,398.2394,699.317,397.0557,699.6769 Z"/> </g> </g> </svg>